<svg width="41" height="40" viewBox="0 0 41 40" fill="none" xmlns="http://www.w3.org/2000/svg">
<path d="M33.8335 3.33398H13.8335C12.0002 3.33398 10.5002 4.83398 10.5002 6.66732V26.6673C10.5002 28.5007 12.0002 30.0007 13.8335 30.0007H33.8335C35.6668 30.0007 37.1668 28.5007 37.1668 26.6673V6.66732C37.1668 4.83398 35.6668 3.33398 33.8335 3.33398ZM33.8335 26.6673H13.8335V6.66732H33.8335V26.6673ZM7.16683 10.0007H3.8335V33.334C3.8335 35.1673 5.3335 36.6673 7.16683 36.6673H30.5002V33.334H7.16683V10.0007ZM27.1668 20.0007V15.0007C27.1668 14.084 26.4168 13.334 25.5002 13.334H22.1668V21.6673H25.5002C26.4168 21.6673 27.1668 20.9173 27.1668 20.0007ZM23.8335 15.0007H25.5002V20.0007H23.8335V15.0007ZM30.5002 18.334H32.1668V16.6673H30.5002V15.0007H32.1668V13.334H28.8335V21.6673H30.5002V18.334ZM17.1668 18.334H18.8335C19.7502 18.334 20.5002 17.584 20.5002 16.6673V15.0007C20.5002 14.084 19.7502 13.334 18.8335 13.334H15.5002V21.6673H17.1668V18.334ZM17.1668 15.0007H18.8335V16.6673H17.1668V15.0007Z" fill="#333333"/>
</svg>
