<svg width="332" height="32" viewBox="0 0 332 32" fill="none" xmlns="http://www.w3.org/2000/svg">
<g clip-path="url(#clip0_1571_9652)">
<path d="M25.6715 27.4376C24.2927 27.3403 22.9192 27.1918 21.5483 26.9921C21.4857 26.9819 21.491 26.8923 21.5535 26.8897C32.0022 26.2753 42.0651 24.2734 42.0651 24.2734C71.8212 18.3547 86.2132 14.2766 100.967 11.7294C113.548 9.55852 131.849 7.56172 154.918 9.1694C155.163 8.2862 156.779 2.80012 161.955 0.721395C163.511 0.0993153 164.848 -0.0542847 165.995 -0.0466047C167.144 -0.0542847 168.481 0.0993153 170.034 0.721395C175.213 2.80012 176.826 8.2862 177.071 9.1694C200.142 7.56172 218.444 9.55852 231.022 11.7294C245.779 14.2766 260.171 18.3547 289.924 24.2734C289.924 24.2734 299.987 26.2753 310.441 26.8897C310.503 26.8923 310.509 26.9844 310.446 26.9921C309.075 27.1918 307.699 27.3403 306.32 27.4376C301.217 27.7985 296.99 27.3992 290.972 26.539C282.819 25.3716 278.725 24.788 270.919 22.9934C259.034 20.2619 249.172 18.8718 229.521 16.1019C206.137 12.8046 197.481 12.7995 194.638 12.7969H194.51C188.643 12.7969 182.722 13.0836 176.91 13.652C176.722 13.6724 176.537 13.5982 176.412 13.4574L175.521 12.4462C175.02 11.8753 174.171 11.7294 173.503 12.0955L166.558 15.8868C166.667 14.7937 167.035 13.2833 168.124 11.8497C169.156 10.4955 170.423 9.74283 171.311 9.34859C171.559 9.23851 171.702 8.96716 171.616 8.71372C171.517 8.41932 171.189 8.28107 170.907 8.40395C169.904 8.84427 168.46 9.69163 167.285 11.2379C166.675 12.0417 166.266 12.866 165.995 13.6417C165.721 12.866 165.312 12.0417 164.702 11.2379C163.539 9.70443 162.109 8.85707 161.103 8.41419C160.865 8.30923 160.571 8.37323 160.43 8.58827C160.25 8.85963 160.365 9.21036 160.654 9.33836C161.546 9.73004 162.828 10.4827 163.868 11.8497C164.955 13.2859 165.325 14.7937 165.432 15.8868L158.488 12.0955C157.819 11.7294 156.969 11.8779 156.469 12.4462L155.577 13.4574C155.455 13.5982 155.27 13.6724 155.082 13.652C149.27 13.0836 143.348 12.7969 137.482 12.7969H137.351C134.508 12.7995 125.855 12.8046 102.463 16.1019C82.8172 18.8718 72.9575 20.2619 61.0728 22.9934C53.2644 24.788 49.1725 25.3716 41.0147 26.539C35.0046 27.3992 30.7772 27.796 25.6715 27.4376Z" fill="#009000"/>
<path d="M329.542 27.3455C326.628 29.7801 323.201 30.4175 321.723 30.6735C313.755 32.0559 307.255 31.974 306.085 31.9535C301.243 31.869 297.591 31.526 296.702 31.4415C289.509 30.7529 281.495 29.629 265.688 26.5775C255.721 24.6549 253.613 24.0789 246.599 22.973C241.167 22.1154 236.669 21.5522 233.63 21.2015C228.483 20.5692 223.833 20.1416 219.895 19.8626C215.957 19.5836 212.733 19.4505 210.434 19.4095C194.848 19.1279 187.055 18.9871 179.419 21.7135C173.599 23.7922 169.202 26.6159 166.312 28.7714C166.124 28.9122 165.869 28.9122 165.681 28.7714C162.793 26.6133 158.397 23.7922 152.574 21.7135C144.94 18.9871 137.147 19.1279 121.559 19.4095C116.964 19.494 108.661 19.9369 98.3657 21.2015C98.3631 21.2015 98.3631 21.2015 98.3631 21.2015C95.3267 21.5522 90.8283 22.1154 85.3967 22.973C78.3832 24.0789 76.2747 24.6549 66.3056 26.5775C50.501 29.629 42.484 30.7529 35.2906 31.4415C34.4045 31.526 30.7531 31.869 25.9079 31.9535C24.7403 31.974 18.2402 32.0559 10.2701 30.6735C8.79498 30.4175 5.36769 29.7801 2.45124 27.3455C2.21928 27.1509 0.321897 25.5509 0.626834 25.0415C0.93959 24.5218 3.37387 25.4204 3.75439 25.5535C4.78053 25.9125 5.92608 26.1976 7.16186 26.419C13.2394 27.5082 19.4413 28.0241 25.6004 28.4591C26.9035 28.5513 28.1494 28.5948 29.3821 28.5948C33.0622 28.5948 36.612 28.2057 41.173 27.5529C49.3568 26.3829 53.4643 25.7941 61.3145 23.9893C73.1549 21.2706 83.0015 19.8805 102.622 17.1157C125.933 13.8287 134.533 13.8236 137.359 13.821H137.486C143.319 13.821 149.204 14.1077 154.982 14.6709C155.509 14.7247 156.025 14.5199 156.371 14.1282L157.263 13.1145C157.44 12.9122 157.745 12.8584 157.985 12.989L165.744 17.2258C165.757 17.2335 165.77 17.2386 165.783 17.2437C165.809 17.2565 165.838 17.2668 165.864 17.2719C165.882 17.277 165.9 17.2821 165.918 17.2821C165.97 17.2924 166.025 17.2924 166.077 17.2821C166.116 17.277 166.156 17.2668 166.192 17.254C166.213 17.2463 166.231 17.2361 166.252 17.2258L166.26 17.2207L174.011 12.989C174.251 12.8584 174.556 12.9122 174.735 13.1145L175.627 14.1282C175.971 14.5199 176.49 14.7247 177.013 14.6709C182.792 14.1077 188.679 13.821 194.509 13.821H194.64C197.465 13.8236 206.063 13.8287 229.379 17.1157C248.997 19.8805 258.843 21.2706 270.681 23.9893C278.534 25.7941 282.641 26.3829 290.828 27.5529C295.386 28.2057 298.933 28.5948 302.614 28.5948C303.846 28.5948 305.092 28.5513 306.398 28.4591C312.557 28.0241 318.759 27.5074 324.836 26.4173C326.07 26.196 327.214 25.9114 328.239 25.5535C328.622 25.4204 331.056 24.5218 331.366 25.0415C331.676 25.5509 329.779 27.1509 329.542 27.3455Z" fill="#009000"/>
</g>
<defs>
<clipPath id="clip0_1571_9652">
<rect width="331" height="32" fill="white" transform="translate(0.5)"/>
</clipPath>
</defs>
</svg>
